<svg width="1920" height="203" viewBox="0 0 1920 203" fill="none" xmlns="http://www.w3.org/2000/svg">
<path d="M1777.29 228.551C1777.93 229.834 1778.68 231.33 1779.53 233.041C1780.39 234.752 1781.25 236.462 1782.1 238.173C1783.17 239.883 1784.24 241.487 1785.31 242.984C1786.6 244.267 1787.78 245.122 1788.85 245.55C1790.13 246.191 1791.52 246.619 1793.02 246.833C1794.73 246.833 1796.23 246.512 1797.52 245.87C1798.8 245.015 1799.87 243.518 1800.73 241.38C1801.58 239.242 1802.01 236.248 1802.01 232.399V116.613C1805.22 113.406 1808.22 110.519 1811 107.953C1813.36 105.601 1815.6 103.356 1817.74 101.218C1820.1 98.8656 1821.6 97.2619 1822.24 96.4066V121.745C1829.09 113.833 1837.22 107.632 1846.64 103.142C1856.28 98.6518 1866.55 96.4066 1877.47 96.4066C1889.24 96.4066 1899.62 98.9725 1908.61 104.104C1917.82 109.236 1925.52 115.972 1931.73 124.311C1933.66 126.877 1935.16 130.405 1936.23 134.895C1937.51 139.385 1938.47 144.41 1939.12 149.97C1939.97 155.315 1940.51 160.982 1940.72 166.969C1941.15 172.742 1941.36 178.302 1941.36 183.647L1941.04 255.813C1941.04 256.455 1940.83 256.776 1940.4 256.776H1904.76V255.172H1912.79C1915.36 255.172 1917.18 254.317 1918.25 252.606C1919.53 250.682 1920.28 246.512 1920.49 240.097C1920.92 233.469 1921.03 223.953 1920.81 211.551C1920.81 198.936 1920.81 182.044 1920.81 160.875C1920.81 150.184 1919.53 140.882 1916.96 132.971C1914.61 125.059 1911.4 118.538 1907.33 113.406C1903.26 108.274 1898.55 104.425 1893.2 101.859C1888.06 99.2932 1882.6 98.0103 1876.83 98.0103C1870.4 98.0103 1863.98 99.614 1857.56 102.821C1851.35 105.815 1845.68 110.412 1840.54 116.613C1835.4 122.6 1831.12 130.191 1827.7 139.385C1824.49 148.366 1822.67 158.737 1822.24 170.497V233.682C1822.24 234.11 1822.13 235.607 1821.92 238.173C1821.92 240.525 1821.38 243.091 1820.31 245.87C1819.46 248.65 1817.74 251.216 1815.18 253.568C1812.82 255.706 1809.4 256.776 1804.9 256.776C1800.19 256.776 1796.34 255.813 1793.34 253.889C1790.34 251.964 1787.78 249.612 1785.64 246.833C1783.71 243.839 1782.1 240.739 1780.82 237.531C1779.53 234.11 1778.36 231.117 1777.29 228.551Z" fill="white" fill-opacity="0.3"/>
<path d="M1610.42 176.128C1610.42 164.989 1612.34 154.6 1616.19 144.961C1620.24 135.107 1625.68 126.539 1632.51 119.256C1639.34 111.973 1647.35 106.19 1656.52 101.906C1665.7 97.6217 1675.52 95.4797 1685.97 95.4797C1696.43 95.4797 1706.25 97.6217 1715.42 101.906C1724.6 106.19 1732.61 111.973 1739.43 119.256C1746.26 126.539 1751.6 135.107 1755.44 144.961C1759.5 154.6 1761.52 164.989 1761.52 176.128C1761.52 187.266 1759.5 197.762 1755.44 207.616C1751.6 217.469 1746.26 226.037 1739.43 233.32C1732.61 240.603 1724.6 246.387 1715.42 250.671C1706.25 254.741 1696.43 256.776 1685.97 256.776C1675.52 256.776 1665.7 254.741 1656.52 250.671C1647.35 246.387 1639.34 240.603 1632.51 233.32C1625.68 226.037 1620.24 217.469 1616.19 207.616C1612.34 197.762 1610.42 187.266 1610.42 176.128ZM1619.71 197.655C1619.71 211.578 1623.76 222.824 1631.87 231.392C1640.2 239.961 1651.29 244.245 1665.17 244.245C1676.05 244.245 1686.72 241.674 1697.18 236.533C1707.64 231.178 1716.92 224.324 1725.03 215.97C1733.35 207.401 1739.97 197.869 1744.88 187.373C1750 176.663 1752.56 165.953 1752.56 155.243C1752.56 148.388 1751.49 142.176 1749.36 136.607C1747.22 130.823 1744.13 125.897 1740.07 121.827C1736.02 117.757 1731.22 114.544 1725.67 112.188C1720.12 109.831 1713.93 108.653 1707.1 108.653C1696.22 108.653 1685.55 111.224 1675.09 116.365C1664.63 121.506 1655.24 128.36 1646.92 136.928C1638.81 145.282 1632.19 154.814 1627.07 165.524C1622.16 176.021 1619.71 186.731 1619.71 197.655Z" fill="white" fill-opacity="0.3"/>
<path d="M1442.64 176.128C1442.64 164.989 1444.56 154.6 1448.4 144.961C1452.46 135.107 1457.9 126.539 1464.73 119.256C1471.56 111.973 1479.56 106.19 1488.74 101.906C1497.91 97.6217 1507.73 95.4797 1518.19 95.4797C1528.65 95.4797 1538.46 97.6217 1547.64 101.906C1556.82 106.19 1564.82 111.973 1571.65 119.256C1578.48 126.539 1583.81 135.107 1587.66 144.961C1591.71 154.6 1593.74 164.989 1593.74 176.128C1593.74 187.266 1591.71 197.762 1587.66 207.616C1583.81 217.469 1578.48 226.037 1571.65 233.32C1564.82 240.603 1556.82 246.387 1547.64 250.671C1538.46 254.741 1528.65 256.776 1518.19 256.776C1507.73 256.776 1497.91 254.741 1488.74 250.671C1479.56 246.387 1471.56 240.603 1464.73 233.32C1457.9 226.037 1452.46 217.469 1448.4 207.616C1444.56 197.762 1442.64 187.266 1442.64 176.128ZM1451.92 197.655C1451.92 211.578 1455.98 222.824 1464.09 231.392C1472.41 239.961 1483.51 244.245 1497.38 244.245C1508.26 244.245 1518.94 241.674 1529.39 236.533C1539.85 231.178 1549.13 224.324 1557.24 215.97C1565.57 207.401 1572.18 197.869 1577.09 187.373C1582.21 176.663 1584.77 165.953 1584.77 155.243C1584.77 148.388 1583.71 142.176 1581.57 136.607C1579.44 130.823 1576.34 125.897 1572.29 121.827C1568.24 117.757 1563.43 114.544 1557.88 112.188C1552.34 109.831 1546.15 108.653 1539.32 108.653C1528.43 108.653 1517.76 111.224 1507.3 116.365C1496.85 121.506 1487.46 128.36 1479.13 136.928C1471.02 145.282 1464.41 154.814 1459.29 165.524C1454.38 176.021 1451.92 186.731 1451.92 197.655Z" fill="white" fill-opacity="0.3"/>
<path d="M1281.01 24.7146C1290.63 15.0856 1302.17 8.55919 1315.64 5.1355C1329.11 1.71183 1343.33 0 1358.29 0C1369.84 0 1381.38 0.748926 1392.92 2.24678C1404.68 3.53065 1415.69 5.02851 1425.95 6.74035L1409.92 66.4407C1410.99 54.2438 1410.24 43.9728 1407.68 35.6276C1405.32 27.2824 1401.16 20.649 1395.17 15.7275C1389.18 10.592 1381.59 6.95433 1372.4 4.81454C1363.21 2.67474 1352.52 1.71183 1340.33 1.92581C1332 2.13979 1324.41 4.38657 1317.56 8.66616C1310.72 12.9458 1304.74 18.8302 1299.61 26.3195C1294.69 33.5948 1290.73 42.154 1287.74 51.9971C1284.75 61.6261 1283.04 72.1111 1282.61 83.4521C1297.15 79.1725 1311.47 77.0327 1325.58 77.0327C1335.42 77.0327 1344.82 78.2096 1353.8 80.5633C1362.99 82.9171 1371.44 86.3408 1379.14 90.8344C1386.83 95.3279 1393.67 100.891 1399.66 107.525C1405.86 113.944 1410.99 121.219 1415.05 129.351C1418.69 136.412 1421.36 143.794 1423.07 151.498C1424.99 158.987 1425.95 165.941 1425.95 172.361C1425.95 183.488 1423.92 194.294 1419.86 204.779C1415.8 215.05 1409.71 224.251 1401.58 232.382C1391.96 242.011 1380.42 248.537 1366.95 251.961C1353.48 255.171 1339.26 256.776 1324.3 256.776C1312.54 256.776 1300.78 256.134 1289.02 254.85C1277.48 253.352 1266.58 251.747 1256.32 250.035L1272.35 190.656C1271.28 202.853 1271.92 213.124 1274.27 221.469C1276.84 229.6 1281.01 236.234 1286.78 241.369C1292.77 246.291 1300.25 249.821 1309.23 251.961C1318.42 253.887 1329.11 254.743 1341.3 254.529C1349.63 254.315 1357.22 252.175 1364.06 248.109C1370.9 243.83 1376.89 238.052 1382.02 230.777C1387.15 223.502 1391.21 214.943 1394.21 205.1C1397.2 195.256 1399.02 184.771 1399.66 173.645C1399.87 170.435 1399.77 166.476 1399.34 161.769C1399.12 156.847 1398.8 152.995 1398.38 150.214C1397.09 140.157 1394.63 130.849 1391 122.289C1387.58 113.516 1383.3 106.027 1378.17 99.8215C1373.04 93.4021 1367.16 88.4806 1360.54 85.0569C1353.91 81.4193 1346.75 79.6004 1339.05 79.6004C1332.42 79.6004 1325.69 80.9913 1318.85 83.773C1312.01 86.3408 1305.38 89.8715 1298.97 94.365C1292.55 98.8586 1286.57 103.994 1281.01 109.772C1275.45 115.335 1270.85 121.219 1267.22 127.425C1266.36 125.927 1265.51 124.536 1264.65 123.252C1264.01 121.754 1263.48 120.257 1263.05 118.759C1260.27 110.414 1258.45 101.961 1257.6 93.4021C1256.74 84.8429 1257.06 76.4977 1258.56 68.3665C1260.06 60.2353 1262.62 52.425 1266.26 44.9357C1269.89 37.4464 1274.81 30.7061 1281.01 24.7146Z" fill="white" fill-opacity="0.3"/>
<path d="M943.925 293.356C943.925 291.859 943.925 290.469 943.925 289.186C944.138 288.117 944.351 287.047 944.563 285.978C944.776 284.909 944.989 283.947 945.201 283.091C945.201 295.922 947.648 308.004 952.54 319.338C957.646 330.671 964.346 340.508 972.643 348.848C981.151 357.188 991.043 363.71 1002.32 368.415C1013.59 373.333 1025.5 375.792 1038.05 375.792C1040.82 375.792 1043.48 375.578 1046.03 375.151C1048.8 374.937 1051.67 374.616 1054.65 374.188C1058.69 373.547 1062.62 372.05 1066.45 369.698C1070.49 367.345 1074.11 364.458 1077.3 361.037C1080.49 357.615 1083.04 353.873 1084.96 349.81C1086.87 345.961 1087.83 342.005 1087.83 337.942C1087.83 332.168 1085.38 326.394 1080.49 320.621C1075.81 314.847 1069.86 309.287 1062.62 303.941C1055.39 298.595 1047.52 293.57 1039.01 288.865C1030.72 284.16 1022.95 279.777 1015.72 275.714C1008.49 271.865 1002.42 268.443 997.531 265.449C992.851 262.455 990.511 260.103 990.511 258.392C990.511 255.399 991.681 254.009 994.021 254.223C996.361 254.436 999.658 254.543 1003.91 254.543C995.616 252.833 987.746 249.625 980.3 244.92C973.068 240.002 966.793 234.121 961.475 227.278C956.157 220.435 951.902 212.737 948.711 204.183C945.733 195.416 944.244 186.221 944.244 176.598C944.244 165.264 946.159 154.786 949.988 145.163C954.029 135.326 959.454 126.879 966.261 119.822C973.068 112.552 981.045 106.885 990.192 102.822C999.339 98.545 1009.12 96.4066 1019.55 96.4066C1029.76 96.4066 1039.33 98.545 1048.27 102.822C1057.41 106.885 1065.39 112.552 1072.2 119.822C1079 126.879 1084.32 135.326 1088.15 145.163C1092.19 154.786 1094.21 165.264 1094.21 176.598C1094.21 186.434 1092.62 195.737 1089.43 204.504C1086.24 213.272 1081.88 221.184 1076.34 228.241C1070.81 235.297 1064.22 241.178 1056.56 245.883C1048.9 250.587 1040.71 253.795 1031.99 255.506L994.978 258.072C996.68 258.286 999.765 258.499 1004.23 258.713C1008.91 259.141 1014.34 259.782 1020.5 260.638C1026.67 261.493 1033.27 262.669 1040.29 264.166C1047.31 265.877 1054.11 268.122 1060.71 270.902C1067.3 273.896 1073.26 277.531 1078.58 281.808C1083.9 286.085 1087.94 291.217 1090.7 297.205C1096.02 308.966 1097.3 320.407 1094.53 331.527C1091.98 342.86 1086.77 352.911 1078.9 361.678C1071.24 370.66 1061.77 377.824 1050.5 383.17C1039.22 388.516 1027.63 391.189 1015.72 391.189C1008.7 391.189 1001.79 390.12 994.978 387.981C988.384 386.057 982.109 382.849 976.152 378.358C963.815 368.949 955.306 356.867 950.626 342.112C946.159 327.571 943.925 311.319 943.925 293.356ZM966.899 232.09C971.153 236.153 975.833 239.147 980.939 241.071C986.257 242.782 991.787 243.637 997.531 243.637C1008.17 243.637 1019.02 241.071 1030.08 235.939C1041.14 230.593 1050.82 223.429 1059.11 214.448C1065.92 207.177 1071.45 199.372 1075.71 191.032C1080.17 182.478 1083.05 174.032 1084.32 165.692C1085.81 157.352 1085.49 149.333 1083.36 141.634C1081.45 133.722 1077.41 126.772 1071.24 120.785C1066.98 116.722 1062.2 113.835 1056.88 112.124C1051.77 110.199 1046.35 109.237 1040.61 109.237C1029.97 109.237 1019.12 111.91 1008.06 117.256C997.212 122.602 987.639 129.766 979.343 138.747C972.749 145.804 967.218 153.61 962.751 162.163C958.496 170.503 955.625 178.95 954.136 187.504C952.859 195.843 953.178 203.969 955.093 211.882C957.007 219.58 960.943 226.316 966.899 232.09Z" fill="white" fill-opacity="0.3"/>
<path d="M763.157 228.551C763.799 229.834 764.549 231.33 765.405 233.041C766.261 234.752 767.117 236.462 767.973 238.173C769.044 239.883 770.114 241.487 771.184 242.984C772.469 244.267 773.646 245.122 774.716 245.55C776.001 246.191 777.392 246.619 778.891 246.833C780.603 246.833 782.101 246.512 783.386 245.87C784.67 245.015 785.74 243.518 786.597 241.38C787.453 239.242 787.881 236.248 787.881 232.399V116.613C791.092 113.406 794.089 110.519 796.872 107.953C799.226 105.601 801.474 103.356 803.614 101.218C805.969 98.8656 807.468 97.2619 808.11 96.4066V121.745C814.96 113.833 823.094 107.632 832.513 103.142C842.145 98.6518 852.42 96.4066 863.337 96.4066C875.11 96.4066 885.492 98.9725 894.483 104.104C903.687 109.236 911.394 115.972 917.601 124.311C919.528 126.877 921.026 130.405 922.097 134.895C923.381 139.385 924.344 144.41 924.986 149.97C925.843 155.315 926.378 160.982 926.592 166.969C927.02 172.742 927.234 178.302 927.234 183.647L926.913 255.813C926.913 256.455 926.699 256.776 926.271 256.776H890.63V255.172H898.657C901.226 255.172 903.045 254.317 904.116 252.606C905.4 250.682 906.149 246.512 906.363 240.097C906.791 233.469 906.898 223.953 906.684 211.551C906.684 198.936 906.684 182.044 906.684 160.875C906.684 150.184 905.4 140.882 902.831 132.971C900.477 125.059 897.266 118.538 893.199 113.406C889.131 108.274 884.422 104.425 879.071 101.859C873.933 99.2932 868.475 98.0103 862.695 98.0103C856.273 98.0103 849.851 99.614 843.43 102.821C837.222 105.815 831.549 110.412 826.412 116.613C821.274 122.6 816.993 130.191 813.568 139.385C810.357 148.366 808.538 158.737 808.11 170.497V233.682C808.11 234.11 808.003 235.607 807.789 238.173C807.789 240.525 807.253 243.091 806.183 245.87C805.327 248.65 803.614 251.216 801.046 253.568C798.691 255.706 795.266 256.776 790.771 256.776C786.062 256.776 782.208 255.813 779.212 253.889C776.215 251.964 773.646 249.612 771.505 246.833C769.579 243.839 767.973 240.739 766.689 237.531C765.405 234.11 764.227 231.117 763.157 228.551Z" fill="white" fill-opacity="0.3"/>
<path d="M691.783 256.776L693.058 254.853H701.668C706.983 254.853 709.64 250.26 709.64 241.073V108.723C709.003 104.878 708.046 100.819 706.77 96.546L729.411 113.53L728.773 256.776H691.783ZM706.77 79.2412C706.77 75.8229 707.94 72.9388 710.278 70.5887C712.829 68.0251 715.912 66.7432 719.526 66.7432C722.715 66.7432 725.478 68.0251 727.817 70.5887C730.368 72.9388 731.643 75.8229 731.643 79.2412C731.643 82.873 730.368 85.864 727.817 88.214C725.478 90.564 722.715 91.7391 719.526 91.7391C715.912 91.7391 712.829 90.564 710.278 88.214C707.94 85.864 706.77 82.873 706.77 79.2412Z" fill="white" fill-opacity="0.3"/>
<path d="M402.562 228.551C403.629 230.475 404.697 232.506 405.764 234.645C406.832 236.783 408.006 238.814 409.287 240.739C410.568 242.449 412.063 243.946 413.771 245.229C415.479 246.298 417.4 246.833 419.535 246.833C421.884 246.833 423.805 245.87 425.3 243.946C426.794 241.808 427.648 237.959 427.862 232.399V116.613L447.717 96.4066V121.745C454.549 113.833 462.662 107.632 472.056 103.142C481.664 98.6518 492.019 96.4066 503.121 96.4066C513.796 96.4066 523.51 98.6518 532.264 103.142C541.231 107.419 549.13 113.726 555.962 122.066C562.795 113.94 570.908 107.632 580.302 103.142C589.909 98.6518 600.264 96.4066 611.366 96.4066C623.963 96.4066 634.317 98.5449 642.431 102.821C650.757 106.884 657.269 112.764 661.966 120.462C666.876 128.16 670.292 137.354 672.214 148.045C674.135 158.737 675.096 170.604 675.096 183.647L674.776 255.813C674.776 256.455 674.456 256.776 673.815 256.776H638.267V255.493H646.594C649.583 255.493 651.611 254.21 652.679 251.644C653.96 248.864 654.6 245.336 654.6 241.059V160.875C654.6 152.536 653.746 144.624 652.038 137.14C650.544 129.656 648.088 123.135 644.672 117.575C641.256 111.802 636.773 107.312 631.222 104.104C625.884 100.683 619.266 98.9725 611.366 98.9725C606.883 98.9725 602.292 99.614 597.595 100.897C592.898 102.18 588.308 104.211 583.824 106.991C579.554 109.771 575.498 113.513 571.655 118.217C567.812 122.707 564.609 128.373 562.047 135.216C562.047 134.147 562.154 134.467 562.368 136.178C562.795 137.675 563.115 140.027 563.328 143.234C563.755 146.228 564.182 149.649 564.609 153.498C565.25 157.133 565.677 160.554 565.89 163.762C566.531 170.39 566.851 177.019 566.851 183.647L566.531 255.813C566.531 256.455 566.317 256.776 565.89 256.776H530.342V255.493H538.349C541.338 255.493 543.366 254.21 544.433 251.644C545.714 248.864 546.355 245.336 546.355 241.059V160.875C546.355 152.322 545.608 144.303 544.113 136.82C542.619 129.336 540.163 122.814 536.747 117.255C533.545 111.695 529.168 107.312 523.617 104.104C518.28 100.897 511.554 99.2932 503.441 99.2932C497.25 99.2932 490.845 100.576 484.226 103.142C477.821 105.494 471.843 109.557 466.292 115.33C460.954 121.103 456.471 128.908 452.841 138.744C449.425 148.366 447.717 160.554 447.717 175.308V235.928C447.717 237.21 447.397 239.028 446.757 241.38C446.33 243.732 445.476 246.084 444.195 248.436C442.914 250.575 441.099 252.499 438.75 254.21C436.615 255.92 433.733 256.776 430.103 256.776C425.62 256.776 421.884 255.813 418.895 253.889C415.906 251.964 413.344 249.612 411.209 246.833C409.074 243.839 407.366 240.739 406.085 237.531C404.804 234.11 403.629 231.117 402.562 228.551Z" fill="white" fill-opacity="0.3"/>
<path d="M234.772 176.128C234.772 164.989 236.693 154.6 240.535 144.961C244.589 135.107 250.032 126.539 256.861 119.256C263.69 111.973 271.693 106.19 280.87 101.906C290.047 97.6217 299.864 95.4797 310.322 95.4797C320.779 95.4797 330.596 97.6217 339.773 101.906C348.95 106.19 356.953 111.973 363.783 119.256C370.612 126.539 375.948 135.107 379.789 144.961C383.844 154.6 385.871 164.989 385.871 176.128C385.871 187.266 383.844 197.762 379.789 207.616C375.948 217.469 370.612 226.037 363.783 233.32C356.953 240.603 348.95 246.387 339.773 250.671C330.596 254.741 320.779 256.776 310.322 256.776C299.864 256.776 290.047 254.741 280.87 250.671C271.693 246.387 263.69 240.603 256.861 233.32C250.032 226.037 244.589 217.469 240.535 207.616C236.693 197.762 234.772 187.266 234.772 176.128ZM244.056 197.655C244.056 211.578 248.111 222.824 256.221 231.392C264.544 239.961 275.642 244.245 289.514 244.245C300.398 244.245 311.069 241.674 321.526 236.533C331.984 231.178 341.267 224.324 349.377 215.97C357.7 207.401 364.316 197.869 369.225 187.373C374.347 176.663 376.908 165.953 376.908 155.243C376.908 148.388 375.841 142.176 373.707 136.607C371.572 130.823 368.478 125.897 364.423 121.827C360.368 117.757 355.566 114.544 350.017 112.188C344.469 109.831 338.279 108.653 331.45 108.653C320.566 108.653 309.895 111.224 299.438 116.365C288.98 121.506 279.59 128.36 271.267 136.928C263.157 145.282 256.541 154.814 251.419 165.524C246.51 176.021 244.056 186.731 244.056 197.655Z" fill="white" fill-opacity="0.3"/>
<path d="M-22 120.364C-22 104.743 -19.1193 89.5505 -13.358 74.7859C-7.5966 60.0213 1.15213 46.7546 12.8882 34.9857C19.7165 28.1383 27.2916 22.5748 35.6136 18.2953C43.9356 13.8017 52.791 10.164 62.1798 7.3823C71.5687 4.60056 81.3844 2.67474 91.6268 1.60484C102.083 0.534945 112.538 0 122.994 0C139.638 0 156.175 1.06989 172.606 3.20969C189.036 5.1355 204.507 7.2753 219.017 9.62907L195.971 94.365C196.825 89.4435 197.252 83.987 197.252 77.9956C197.252 60.2353 193.838 46.3266 187.009 36.2696C180.394 26.2125 171.966 18.7232 161.723 13.8017C151.694 8.66617 140.812 5.56347 129.076 4.49357C117.553 3.20968 106.884 2.67474 97.0681 2.88873C84.9052 3.1027 72.9557 6.52637 61.2196 13.1597C49.6969 19.7931 39.3478 28.7803 30.1723 40.1212C21.2102 51.2481 13.9552 64.3009 8.40717 79.2795C3.07258 94.0441 0.405285 109.986 0.405285 127.104C0.405285 144.65 3.28596 161.127 9.04732 176.533C15.0221 191.94 22.7039 205.421 32.0928 216.975C41.695 228.316 52.5776 237.303 64.7405 243.937C76.9033 250.57 89.2796 253.887 101.869 253.887C111.685 253.887 122.354 251.747 133.877 247.467C145.399 243.188 156.389 237.303 166.845 229.814C177.514 222.111 186.903 213.017 195.011 202.532C203.12 192.047 208.561 180.599 211.335 168.188L207.174 238.48C193.091 244.044 178.794 248.537 164.284 251.961C149.987 255.171 135.584 256.776 121.074 256.776C102.083 256.776 83.8383 253.673 66.3408 247.467C48.8434 241.048 32.7329 230.456 18.0094 215.692C4.56626 202.211 -5.46276 187.232 -12.0777 170.756C-18.6926 154.279 -22 137.482 -22 120.364Z" fill="white" fill-opacity="0.3"/>
</svg>
