<svg width="156" height="78" viewBox="0 0 156 78" fill="none" xmlns="http://www.w3.org/2000/svg">
<g clip-path="url(#clip0_159_19)">
<g clip-path="url(#clip1_159_19)">
<path d="M47.9241 37.967C47.9075 38.0159 47.902 38.1627 47.8275 38.2497C46.8427 39.4049 45.6702 40.2746 44.1143 40.5247C43.9681 40.5492 43.7943 40.5166 43.6536 40.4595C42.0343 39.8207 40.757 38.6927 39.4494 37.6109C38.5501 36.8662 37.6535 36.1133 36.7542 35.3658C36.5804 35.2217 36.3956 35.0831 36.2052 34.9608C35.6121 34.5775 35.2038 34.5966 34.7266 35.1049C34.2383 35.624 33.8079 36.1948 33.3334 36.7248C32.8231 37.2956 32.3431 37.9072 31.7582 38.391C30.2824 39.6033 28.6023 39.7772 26.8175 39.1385C25.463 38.652 24.3154 37.8365 23.2726 36.8825C21.9705 35.692 20.7043 34.4661 19.438 33.2403C18.9056 32.7265 18.9387 32.259 19.518 31.7997C20.1111 31.3294 20.6932 30.832 21.3415 30.4461C22.4174 29.81 23.5484 29.8753 24.525 30.6282C26.2161 31.9301 27.8437 33.3082 29.5017 34.6482C29.8796 34.9554 30.2575 35.2652 30.6686 35.5289C31.2562 35.9067 31.7058 35.8605 32.1886 35.3576C32.6659 34.8602 33.1045 34.3221 33.5459 33.792C34.1693 33.0446 34.7818 32.2835 35.6231 31.7589C37.4908 30.5956 39.3887 30.6608 41.1763 31.8513C42.4536 32.7021 43.6178 33.7186 44.8123 34.6863C45.7199 35.4229 46.5889 36.2057 47.4882 36.9532C47.7916 37.2059 47.9075 37.5131 47.9296 37.9616L47.9241 37.967Z" fill="#F8F5F1"/>
<path d="M90.698 70.2333C90.6483 70.4399 90.6042 70.8068 90.4745 71.1412C90.2483 71.7283 90.0028 72.3181 89.6993 72.8699C89.4124 73.3917 89.0455 73.4651 88.5241 73.158C88.171 72.9514 87.8483 72.6905 87.5089 72.4567C85.1696 70.8313 82.8523 69.1787 80.4826 67.5968C79.5833 66.9961 79.2964 66.2812 79.4978 65.2701C79.7157 64.1747 80.1295 63.1799 80.8743 62.3292C81.2605 61.8861 81.6909 61.829 82.1875 62.1715C83.7047 63.2125 85.2303 64.2481 86.7365 65.3054C87.622 65.9279 88.5103 66.5503 89.3379 67.2462C90.2042 67.9719 90.6345 68.9504 90.7007 70.2333H90.698Z" fill="#F8F5F1"/>
<path d="M110.034 46.942C110.034 46.942 110.006 46.9338 109.995 46.9311C107.816 46.3386 105.617 45.814 103.463 45.1481C98.7593 43.6939 94.4917 41.4162 90.6295 38.3964C88.3426 36.6079 86.3039 34.5693 84.3453 32.4465C84.1494 32.2345 83.948 32.0306 83.7218 31.7942C83.6777 31.9436 83.6473 32.0442 83.617 32.1448C83.3246 33.0988 83.0349 34.0529 82.7342 35.0042C82.5218 35.6728 82.3646 36.3497 82.3977 37.0564C82.4528 38.2387 83.0046 39.2036 83.7384 40.1006C85.7798 42.5849 87.1922 45.3492 87.5729 48.5593C87.8267 50.6821 87.6254 52.7533 86.7922 54.7483C86.5743 55.2675 86.1964 55.6127 85.7053 55.8519C85.2225 56.0856 84.9329 56.0449 84.5605 55.6562C84.326 55.4088 84.0887 55.137 83.9508 54.8299C83.3908 53.5741 82.8942 52.2885 82.6377 50.9321C82.017 47.6433 81.4073 44.3517 80.8169 41.0574C80.2873 38.1001 79.7769 35.1401 79.2859 32.1774C78.8583 29.5952 78.4721 27.0049 78.05 24.4227C78.0004 24.1129 77.8293 23.8247 77.6831 23.4469C76.8224 24.6239 76.0444 25.7111 75.2389 26.7766C74.9327 27.1816 74.8665 27.6083 74.9327 28.0813C74.9575 28.2525 74.9879 28.421 75.0155 28.5895C75.352 30.5765 75.7079 32.5634 76.0251 34.5557C76.4472 37.2031 76.8389 39.8587 77.2472 42.5088C77.57 44.599 77.8431 46.6947 77.9369 48.8093C78.0224 50.7065 78.1328 52.601 78.2128 54.4983C78.2514 55.4088 78.2845 56.3221 78.2486 57.2327C78.221 57.9693 77.7134 58.4286 76.9741 58.5102C76.2265 58.5917 75.5451 58.415 74.952 57.9529C74.2734 57.4229 73.8761 56.6918 73.5534 55.9253C73.2775 55.2729 73.4237 54.7429 73.9561 54.2727C74.0858 54.1585 74.2348 54.0661 74.3617 53.9492C75.3906 53.0006 76.2458 51.9161 76.4665 50.5163C76.621 49.5269 76.5603 48.5049 76.6293 47.5019C76.7176 46.1565 76.1327 45.1236 75.1562 44.2484C73.4568 42.7235 71.7409 41.2123 70.2623 39.47C67.3822 36.0778 66.367 32.2807 67.6939 27.9725C67.7822 27.6844 67.705 27.3474 67.705 27.0321C67.6691 27.0103 67.6305 26.9913 67.5946 26.9696C67.3298 27.1163 66.9739 27.1979 66.8112 27.418C65.8153 28.7662 64.9491 30.1823 64.4746 31.8077C63.9449 33.618 63.7104 35.4364 64.0525 37.3064C64.3229 38.8014 64.9849 40.1305 65.7905 41.4053C67.4208 43.9739 69.5395 46.1048 71.8568 48.0646C72.1823 48.3418 72.4113 48.7332 72.7285 49.1273C72.2899 49.3366 71.9561 49.6003 71.5892 49.6546C69.7161 49.9292 67.8374 50.1901 65.9532 50.3777C64.0911 50.5625 62.218 50.6712 60.3504 50.7854C56.7089 51.0083 53.0675 51.2447 49.4233 51.4132C46.1929 51.5655 42.957 51.7204 39.7238 51.7177C35.1058 51.7177 30.4878 51.56 25.867 51.4948C21.9938 51.4404 18.14 51.1849 14.3247 50.5081C12.2888 50.1466 10.2612 49.7498 8.31357 49.0376C5.48593 48.0021 3.22658 46.3005 1.79759 43.6314C1.3562 42.8078 0.914816 41.9815 0.489981 41.1471C0.36584 40.9052 0.236183 40.8617 0.0458346 40.9976C-0.108651 41.5711 0.084456 42.0766 0.208596 42.5985C0.840332 45.2622 2.00725 47.6677 3.70659 49.8286C5.8418 52.544 8.51495 54.4765 11.9274 55.3191C15.0282 56.0829 18.1703 56.651 21.3566 56.8603C24.7884 57.0859 28.2312 57.2327 31.6685 57.3115C34.6313 57.3794 37.5969 57.3305 40.5597 57.2761C43.7625 57.2191 46.9625 57.1266 50.1626 57.0016C52.8275 56.8956 55.4924 56.7543 58.1545 56.5667C60.5435 56.3982 62.9297 56.178 65.3132 55.9198C67.3353 55.6997 69.3492 55.3898 71.3685 55.1207C72.0333 55.031 72.2127 55.1805 72.2402 55.8491C72.2596 56.3194 72.2651 56.7923 72.2982 57.2626C72.414 58.9179 72.814 60.4835 73.8596 61.8289C74.5465 62.715 75.3989 63.4081 76.4279 63.8702C77.1424 64.1909 77.6114 64.0061 77.9424 63.3076C78.061 63.0575 78.1631 62.7938 78.2403 62.5275C78.7259 60.8368 79.1948 59.1407 79.6942 57.4555C79.788 57.1402 79.9838 56.8576 80.1328 56.5586C80.1769 56.5586 80.2183 56.5586 80.2625 56.5586C80.428 56.8521 80.6321 57.1321 80.7563 57.4447C81.1425 58.415 81.5232 59.3827 82.1577 60.2307C82.7259 60.9863 83.4294 61.5843 84.3177 61.9485C84.8556 62.1687 85.1867 62.0355 85.4405 61.5191C85.5508 61.2989 85.6308 61.0624 85.6998 60.8287C86.0115 59.7686 86.5412 58.8336 87.3136 58.0318C88.235 57.075 89.3523 56.3955 90.5275 55.7975C93.3192 54.3787 96.3262 53.8405 99.4297 53.8242C101.584 53.8133 103.742 53.9139 105.896 54.0009C110.302 54.1803 114.71 54.3814 119.116 54.5798C123.325 54.7674 127.535 54.9631 131.745 55.1588C135.345 55.3246 138.945 55.4904 142.548 55.6643C145.505 55.8057 148.465 55.9633 151.422 56.1046C152.12 56.1373 152.7 55.8926 153.113 55.311C153.464 54.819 153.825 54.3352 154.178 53.8459C154.678 53.1474 155.262 52.5005 155.558 51.6769V51.4187C155.337 51.0409 154.959 50.9267 154.562 50.8995C153.301 50.8071 152.04 50.7283 150.78 50.6603C148.3 50.5244 145.822 50.3804 143.342 50.2717C140.319 50.1412 137.29 50.095 134.269 49.9183C131.052 49.7308 127.838 49.4617 124.63 49.1708C121.085 48.8501 117.557 48.3663 114.051 47.7466L110.026 46.9502L110.034 46.942ZM96.2903 51.0871C94.3372 51.4758 92.384 51.8617 90.5633 52.7043C89.9481 52.9897 89.3578 53.3268 88.7371 53.6502V45.708C91.8544 47.3742 94.9358 49.0241 98.1138 50.7229C97.4435 50.856 96.8669 50.9729 96.2903 51.0871Z" fill="#F8F5F1"/>
<path d="M134.115 41.5032C133.74 39.5 133.368 37.4995 132.987 35.4962C132.629 33.6072 131.895 31.8595 130.888 30.2259C129.346 27.728 127.47 25.4856 125.351 23.447C124.788 22.9061 124.113 22.4631 123.442 22.0526C122.739 21.6205 122.286 21.7808 121.958 22.531C121.244 24.1754 120.501 25.8145 120.104 27.5703C120.032 27.8829 120.027 28.2091 119.991 28.5271C119.952 28.8451 119.884 29.1631 119.544 29.2909C119.202 29.4213 118.89 29.2909 118.653 29.0462C118.355 28.7364 118.041 28.4238 117.815 28.065C116.899 26.6054 116.01 25.1268 115.572 23.4416C115.326 22.5011 115.232 21.5471 115.323 20.5713C115.365 20.1174 115.288 19.6526 115.268 19.1932C115.174 16.8013 115.522 14.4882 116.559 12.3029C117.053 11.2591 117.812 10.3975 118.548 9.52229C119.85 7.97842 121.177 6.45629 122.488 4.92058C122.601 4.78739 122.656 4.608 122.736 4.44763H122.54C122.228 4.64062 121.914 4.82544 121.608 5.02658C119.792 6.22254 118.344 7.79359 116.962 9.43259C115.806 10.8025 114.788 12.2485 114.223 13.9663C113.472 16.255 113.216 18.6197 113.161 21.0062C113.119 22.9115 113.39 24.7979 113.817 26.6516C114.377 29.0761 114.979 31.4925 115.569 33.9089C116.391 37.2712 115.817 40.3752 113.699 43.1395C112.722 44.4115 111.596 45.5722 110.548 46.7926C110.394 46.972 110.247 47.0019 110.038 46.9448L112.705 47.4775C113.116 47.0345 113.514 46.5507 113.939 46.143C115.682 44.4605 116.912 42.4274 118.085 40.3535C118.397 39.8017 118.672 39.2282 118.935 38.6519C119.288 37.8746 119.817 37.7359 120.551 38.1953C123.053 39.7636 125.605 41.2341 128.491 42.0359C129.964 42.4464 131.464 42.6856 132.993 42.7481C133.997 42.7889 134.295 42.4572 134.115 41.5032ZM128.951 33.4441C128.874 33.7241 128.664 33.8736 128.289 33.8246C127.644 33.7404 126.998 33.6344 126.364 33.493C125.114 33.2158 123.93 32.7646 122.816 32.1421C122.714 32.0851 122.615 32.0198 122.493 31.9492C122.626 31.6692 122.83 31.6012 123.097 31.6311C124.838 31.8268 126.568 32.0932 128.264 32.5363C128.388 32.5689 128.513 32.6205 128.623 32.683C128.932 32.8597 129.04 33.1234 128.951 33.4441Z" fill="#BD203B"/>
</g>
</g>
<defs>
<clipPath id="clip0_159_19">
<rect width="155.57" height="77.7849" fill="white"/>
</clipPath>
<clipPath id="clip1_159_19">
<rect width="155.57" height="68.8951" fill="white" transform="translate(0 4.44485)"/>
</clipPath>
</defs>
</svg>
